<svg id="Layer_1" data-name="Layer 1" xmlns="http://www.w3.org/2000/svg" viewBox="0 0 3400 2200"><defs><style>.cls-1{fill:#ffbf00;}.cls-2{fill:#29abe2;}.cls-3{fill:#365cb3;}.cls-4{fill:#9cf;}</style></defs><path class="cls-1" d="M2264.1,894.5a330.5,330.5,0,0,1-57.9,187.5c-35.7-2.1-72.8,9.3-103.7,37.2,13.5-141.7-97.9-262.5-238.5-262.5a237.9,237.9,0,0,0-144.6,48.7,298.1,298.1,0,0,0-73.1-184.2,332.7,332.7,0,0,1,284.6-159.9C2114.9,561.3,2264.1,710.5,2264.1,894.5Z"/><path class="cls-1" d="M1930.9,490.8a18.1,18.1,0,0,1-18.1-18V323.4a18.1,18.1,0,0,1,36.1,0V472.8A18.1,18.1,0,0,1,1930.9,490.8Z"/><path class="cls-1" d="M1752.8,511.6,1729,454.4a18,18,0,1,1,33.3-13.8l23.8,57.2a18,18,0,1,1-33.3,13.8Z"/><path class="cls-1" d="M2370.9,1096.2l-57.2-23.6a18,18,0,1,1,13.7-33.3l57.3,23.6a18,18,0,0,1-13.8,33.3Z"/><path class="cls-1" d="M2303.9,740a18.1,18.1,0,0,1,9.7-23.6l57.3-23.7a18,18,0,0,1,13.8,33.3l-57.3,23.7A17.9,17.9,0,0,1,2303.9,740Z"/><path class="cls-1" d="M2085.4,521.4a18.1,18.1,0,0,1-9.8-23.6l23.8-57.2a18,18,0,1,1,33.3,13.8l-23.8,57.2A18,18,0,0,1,2085.4,521.4Z"/><path class="cls-1" d="M1619.9,609,1514.3,503.4a17.9,17.9,0,0,1,0-25.5,18.1,18.1,0,0,1,25.5,0l105.6,105.6a18.1,18.1,0,0,1,0,25.5A17.9,17.9,0,0,1,1619.9,609Z"/><path class="cls-1" d="M2501.9,912.5H2352.6a18,18,0,0,1,0-36h149.3a18,18,0,1,1,0,36Z"/><path class="cls-1" d="M2216.3,609a18.1,18.1,0,0,1,0-25.5l105.6-105.6a18.1,18.1,0,0,1,25.5,0,17.9,17.9,0,0,1,0,25.5L2241.8,609A17.9,17.9,0,0,1,2216.3,609Z"/><path class="cls-2" d="M2345.3,1227.7c0,79.6-64.5,145.6-145.6,145.6h-1112c-114.8,0-207.7-92.9-207.7-207.5,0-128,115.3-226.8,243.5-204.5-26.6-181.9,114.3-343.4,296.5-343.4,161.6,0,293,127.9,299.4,287.5A237.9,237.9,0,0,1,1864,856.7c140.6,0,252,120.8,238.5,262.5C2195.7,1035.1,2345.3,1102.2,2345.3,1227.7Z"/><path class="cls-3" d="M996.2,1620.8a18,18,0,0,1-6-24.8l73.4-120.4a18,18,0,1,1,30.7,18.8l-73.4,120.4A17.9,17.9,0,0,1,996.2,1620.8Z"/><path class="cls-3" d="M1143.7,1892a18,18,0,0,1-6-24.8l57-93.5a18,18,0,0,1,30.8,18.8l-57,93.5A18,18,0,0,1,1143.7,1892Z"/><path class="cls-4" d="M1509,1589.9a17.9,17.9,0,0,1-6-24.7l54.6-89.6a18,18,0,1,1,30.7,18.8l-54.6,89.5A17.9,17.9,0,0,1,1509,1589.9Z"/><path class="cls-3" d="M1308.4,1892a18,18,0,0,1-6-24.8l106.5-174.7a18,18,0,0,1,30.8,18.7L1333.1,1886A17.9,17.9,0,0,1,1308.4,1892Z"/><path class="cls-4" d="M1112.8,1699.6a18,18,0,0,1-6-24.8l121.4-199.2a18,18,0,1,1,30.8,18.8l-121.4,199.2A18,18,0,0,1,1112.8,1699.6Z"/><path class="cls-4" d="M2135.8,1640.7a17.9,17.9,0,0,1-6-24.7l85.6-140.4a18,18,0,1,1,30.7,18.8l-85.5,140.3A18,18,0,0,1,2135.8,1640.7Z"/><path class="cls-3" d="M1801.8,1891.8a18,18,0,0,1-6-24.8l136.1-223.2a18,18,0,0,1,30.8,18.7l-136.1,223.3A18,18,0,0,1,1801.8,1891.8Z"/><path class="cls-3" d="M1629.4,1662.3a18.1,18.1,0,0,1-6-24.8l98.7-161.9a18,18,0,1,1,30.8,18.8l-98.7,161.9A18,18,0,0,1,1629.4,1662.3Z"/><path class="cls-4" d="M1637.3,1891.8a18,18,0,0,1-6-24.8l87.7-143.9a18,18,0,0,1,30.8,18.7l-87.8,144A17.9,17.9,0,0,1,1637.3,1891.8Z"/></svg>